<svg xmlns="http://www.w3.org/2000/svg" viewBox="0 0 1024 1024" width="1024" height="1024" aria-label="AgroApp">
  <title>AgroApp · App icon</title>
  <defs>
    <linearGradient id="bg" x1="0" y1="0" x2="0" y2="1">
      <stop offset="0" stop-color="#2f7a3a"></stop>
      <stop offset="1" stop-color="#1f5a2a"></stop>
    </linearGradient>
  </defs>
  <rect width="1024" height="1024" rx="232" ry="232" fill="url(#bg)"></rect>
  
  <g transform="translate(152 152) scale(6)">
    <circle cx="60" cy="60" r="54" fill="none" stroke="#ffffff" stroke-width="6"></circle>
    <path d="M28 84 L 92 84" stroke="#ffffff" stroke-width="4" stroke-linecap="round" fill="none"></path>
    <path d="M60 84 L 60 56" stroke="#ffffff" stroke-width="4" stroke-linecap="round" fill="none"></path>
    <path d="M60 68 C 48 68, 38 60, 36 50 C 48 50, 58 56, 60 64 Z" fill="#ffffff"></path>
    <path d="M60 60 C 72 60, 82 52, 84 42 C 72 42, 62 48, 60 56 Z" fill="#ffffff"></path>
    <path d="M60 36 C 56 32, 54 28, 54 24 C 54 20, 57 17, 60 17 C 63 17, 66 20, 66 24 C 66 28, 64 32, 60 36 Z" fill="#7cc4ea"></path>
  </g>
</svg>