<svg xmlns="http://www.w3.org/2000/svg" viewBox="0 0 120 120" width="512" height="512" aria-label="AgroApp">
  <title>AgroApp · Sello (monocromo blanco)</title>
  <circle cx="60" cy="60" r="54" fill="none" stroke="#ffffff" stroke-width="6"></circle>
  <path d="M28 84 L 92 84" stroke="#ffffff" stroke-width="4" stroke-linecap="round" fill="none"></path>
  <path d="M60 84 L 60 56" stroke="#ffffff" stroke-width="4" stroke-linecap="round" fill="none"></path>
  <path d="M60 68 C 48 68, 38 60, 36 50 C 48 50, 58 56, 60 64 Z" fill="#ffffff"></path>
  <path d="M60 60 C 72 60, 82 52, 84 42 C 72 42, 62 48, 60 56 Z" fill="#ffffff"></path>
  <path d="M60 36 C 56 32, 54 28, 54 24 C 54 20, 57 17, 60 17 C 63 17, 66 20, 66 24 C 66 28, 64 32, 60 36 Z" fill="#ffffff"></path>
</svg>